<?xml version="1.0" encoding="utf-8"?>
<!-- Generator: Adobe Illustrator 24.0.3, SVG Export Plug-In . SVG Version: 6.00 Build 0)  -->
<svg version="1.1" id="Lager_1" xmlns="http://www.w3.org/2000/svg" xmlns:xlink="http://www.w3.org/1999/xlink" x="0px" y="0px"
	 viewBox="0 0 595.3 841.9" style="enable-background:new 0 0 595.3 841.9;" xml:space="preserve">
<style type="text/css">
	.st0{font-family:'Helvetica';}
	.st1{font-size:9.6513px;}
	.st2{fill:#FFFFFF;stroke:#000000;stroke-width:2;stroke-miterlimit:10;}
	.st3{fill:none;stroke:#000000;stroke-width:2;stroke-miterlimit:10;}
	.st4{fill:none;stroke:#000000;stroke-width:0.5;stroke-miterlimit:10;}
	.st5{font-size:7.721px;}
	.st6{font-size:9.65px;}
	.st7{font-family:'Helvetica-Bold';}
	.st8{font-size:18px;}
</style>
<g>
	<text transform="matrix(1 0 0 1 494.7969 214.749)"><tspan x="0" y="0" class="st0 st1">Core</tspan><tspan x="0" y="11.6" class="st0 st1">Figitidae</tspan></text>
	<path class="st2" d="M311.5,132.2"/>
	<path class="st2" d="M414.8,132.2"/>
	<polyline class="st2" points="433.7,149.7 347,149.7 347,167.1 433.7,166.6 	"/>
	<polyline class="st3" points="345.7,352.6 328.3,352.6 328.3,158.4 347,158.4 	"/>
	<polyline class="st3" points="434.1,219.3 416.5,219.3 416.5,201.9 434.1,201.9 	"/>
	<polyline class="st3" points="433.7,183.5 399,183.5 399,271.3 433.7,271.3 	"/>
	<path class="st2" d="M328.3,254.2"/>
	<path class="st2" d="M414.8,254.2"/>
	<polyline class="st3" points="364.5,406.2 345.7,406.2 345.7,304.6 364.5,304.6 	"/>
	<polyline class="st3" points="433.7,288 416.5,288 416.5,306.2 433.7,306.2 	"/>
	<polyline class="st3" points="434.1,375.1 364.5,375.1 364.5,437.5 381.7,437.5 	"/>
	<line class="st2" x1="434.1" y1="392.5" x2="364.5" y2="392.5"/>
	<polyline class="st3" points="399.3,418.6 381.8,418.6 381.8,457.8 399.1,457.8 	"/>
	<polyline class="st2" points="434.1,444.7 399.1,444.7 399.1,470.9 416.6,470.9 	"/>
	<polyline class="st3" points="434.1,479.6 416.4,479.6 416.4,462.2 434.1,462.2 	"/>
	<polyline class="st3" points="434.1,427.3 399,427.3 399,409.9 434.1,409.9 	"/>
	<text transform="matrix(1 0 0 1 439.6484 135.6172)" class="st0 st1">Paraulacini</text>
	<text transform="matrix(1 0 0 1 439.6484 153.0576)" class="st0 st1">Diplolepidini</text>
	<text transform="matrix(1 0 0 1 439.6484 170.0776)" class="st0 st1">Pediaspidini</text>
	<text transform="matrix(1 0 0 1 439.6484 326.5835)" class="st0 st1">Ibaliidae</text>
	<text transform="matrix(1 0 0 1 439.6484 291.6665)" class="st0 st1">Liopteridae</text>
	<text transform="matrix(1 0 0 1 439.6484 361)" class="st0 st1">Eschatocerini</text>
	<text transform="matrix(1 0 0 1 439.6484 378.1831)" class="st0 st1">Phanacidini</text>
	<text transform="matrix(1 0 0 1 439.6484 395.3667)" class="st0 st1">Aulacideini</text>
	<text transform="matrix(1 0 0 1 439.6484 412.5498)" class="st0 st1">Synergini s. str.</text>
	<text transform="matrix(1 0 0 1 439.6484 429.9219)" class="st0 st1">Rhoophilini</text>
	<text transform="matrix(1 0 0 1 439.6484 447.1055)" class="st0 st1">Diastrophini</text>
	<text transform="matrix(1 0 0 1 439.6484 465.2539)" class="st0 st1">Ceroptresini</text>
	<text transform="matrix(1 0 0 1 439.6484 482.6426)" class="st0 st1">Cynipini</text>
	<polyline class="st3" points="433.7,132.2 311.5,132.2 311.5,263.3 328.3,263.3 	"/>
	<line class="st3" x1="345.7" y1="356.7" x2="434.1" y2="356.7"/>
	<line class="st3" x1="399.5" y1="210.6" x2="416.9" y2="210.6"/>
	<line class="st3" x1="300.1" y1="198.6" x2="311.5" y2="198.6"/>
	<polygon class="st4" points="490.2,260.7 438.1,260.7 437.1,176.9 489.2,176.9 	"/>
	<polygon class="st4" points="509.2,486.4 438.1,486.4 437.1,350.6 508.2,350.6 	"/>
	<polygon class="st4" points="495.2,172.9 438.1,172.9 437.1,125.1 494.2,125.1 	"/>
	<text transform="matrix(1 0 0 1 439.1816 204.5518)" class="st0 st5">Aspicerinae</text>
	<text transform="matrix(1 0 0 1 439.1816 185.7261)" class="st0 st5">Eucoilinae</text>
	<text transform="matrix(1 0 0 1 439.1816 221.2935)" class="st0 st5">Figitinae</text>
	<text transform="matrix(1 0 0 1 439.1816 256.0879)" class="st0 st5">Anacharitinae</text>
	<text transform="matrix(1 0 0 1 439.1816 239.0112)" class="st0 st5">Charipinae</text>
	<text transform="matrix(1 0 0 1 439.1816 308.6953)" class="st0 st5">Euceroptresinae</text>
	<text transform="matrix(1 0 0 1 439.1816 273.9863)" class="st0 st5">Plectocynipinae</text>
	<text transform="matrix(1 0 0 1 439.1816 343.5283)" class="st0 st5">Parnipinae</text>
	<line class="st3" x1="433.7" y1="236.9" x2="399.2" y2="236.9"/>
	<line class="st3" x1="433.7" y1="254.2" x2="399.2" y2="254.2"/>
	<polyline class="st3" points="416.3,297.1 399,297.1 399.3,323.7 434.1,323.7 	"/>
	<polyline class="st3" points="433.7,341.3 364.5,341.3 364.5,269.4 381.7,269.4 	"/>
	<polyline class="st3" points="399,310.4 381.4,310.4 381.4,227.4 399.1,227.4 	"/>
	<path class="st2" d="M40.6,140"/>
	<path class="st2" d="M143.8,140"/>
	<line class="st2" x1="143.8" y1="140" x2="40.6" y2="140"/>
	<polyline class="st3" points="75.3,166.1 57.3,166.1 57.3,374.8 74.8,374.8 	"/>
	<line class="st2" x1="143.8" y1="191.3" x2="57.3" y2="191.3"/>
	<polyline class="st3" points="143.8,157.4 74.4,157.4 74.4,174.3 143.8,174.3 	"/>
	<line class="st2" x1="143.8" y1="209.6" x2="57.3" y2="209.6"/>
	<line class="st2" x1="143.8" y1="227.1" x2="57.3" y2="227.1"/>
	<line class="st2" x1="143.8" y1="244.5" x2="57.3" y2="244.5"/>
	<line class="st2" x1="143.8" y1="261.9" x2="57.3" y2="261.9"/>
	<polyline class="st3" points="143.8,279.3 74.8,279.3 74.8,486.3 143.8,486.3 	"/>
	<polyline class="st3" points="143.8,295.8 92.2,295.8 92.2,304.5 92.2,313.2 143.8,313.2 	"/>
	<line class="st2" x1="143.8" y1="331.6" x2="74.8" y2="331.6"/>
	<polyline class="st3" points="143.8,349 92.2,349 92.2,366.4 143.8,366.4 	"/>
	<line class="st2" x1="143.8" y1="382.8" x2="74.8" y2="382.8"/>
	<polyline class="st3" points="143.8,400.3 92.2,400.3 92.2,418.5 143.8,418.5 	"/>
	<line class="st2" x1="143.8" y1="435" x2="74.8" y2="435"/>
	<line class="st2" x1="143.8" y1="451.5" x2="74.8" y2="451.5"/>
	<line class="st2" x1="143.8" y1="468.9" x2="74.8" y2="468.9"/>
	<text transform="matrix(1 0 0 1 149.3936 125.9658)" class="st0 st6">Ibaliidae</text>
	<text transform="matrix(1 0 0 1 149.3936 143.4062)" class="st0 st6">Liopteridae</text>
	<text transform="matrix(1 0 0 1 234.9946 180.2295)"><tspan x="0" y="0" class="st0 st1">Core</tspan><tspan x="0" y="11.6" class="st0 st1">Figitidae</tspan></text>
	<text transform="matrix(1 0 0 1 216.6343 241.688)"><tspan x="0" y="0" class="st0 st1">Gall-associated</tspan><tspan x="0" y="11.6" class="st0 st1">Figitidae</tspan></text>
	<text transform="matrix(1 0 0 1 512.1764 298.0983)"><tspan x="0" y="0" class="st0 st1">Gall-</tspan><tspan x="0" y="11.6" class="st0 st1">associated</tspan><tspan x="0" y="23.2" class="st0 st1">Figitidae</tspan></text>
	<text transform="matrix(1 0 0 1 227.668 376.4419)" class="st0 st1">Cynipidae</text>
	<text transform="matrix(1 0 0 1 513.8646 413.5498)"><tspan x="0" y="0" class="st0 st1">Cynipidae </tspan><tspan x="0" y="11.6" class="st0 st1">(part)</tspan></text>
	<text transform="matrix(1 0 0 1 500.0444 147.7271)"><tspan x="0" y="0" class="st0 st1">Cynipidae </tspan><tspan x="0" y="11.6" class="st0 st1">(part)</tspan></text>
	<text transform="matrix(1 0 0 1 149.3936 282.8037)" class="st0 st1">Paraulacini</text>
	<text transform="matrix(1 0 0 1 149.3936 299.9873)" class="st0 st1">Diplolepidini</text>
	<text transform="matrix(1 0 0 1 149.3936 317.1704)" class="st0 st1">Pediaspidini</text>
	<text transform="matrix(1 0 0 1 149.3936 335.3193)" class="st0 st1">Eschatocerini</text>
	<text transform="matrix(1 0 0 1 149.3936 352.5024)" class="st0 st1">Phanacidini</text>
	<text transform="matrix(1 0 0 1 149.3936 369.686)" class="st0 st1">Aulacideini</text>
	<text transform="matrix(1 0 0 1 149.3936 386.8696)" class="st0 st1">Qwaqwaiini</text>
	<text transform="matrix(1 0 0 1 149.3936 403.0879)" class="st0 st1">Synergini s. str.</text>
	<text transform="matrix(1 0 0 1 149.3936 421.2593)" class="st0 st1">Rhoophilini</text>
	<text transform="matrix(1 0 0 1 149.3936 437.6436)" class="st0 st1">Diastrophini</text>
	<text transform="matrix(1 0 0 1 149.3936 453.8613)" class="st0 st1">Aylacini s. str.</text>
	<text transform="matrix(1 0 0 1 149.3936 472.0098)" class="st0 st1">Ceroptresini</text>
	<text transform="matrix(1 0 0 1 149.3936 489.3984)" class="st0 st1">Cynipini</text>
	<polyline class="st3" points="143.8,122.6 40.6,122.6 40.6,271 40.6,282.2 57.3,282.2 	"/>
	<line class="st3" x1="74.8" y1="357.7" x2="92.2" y2="357.7"/>
	<line class="st3" x1="74.8" y1="304.5" x2="92.2" y2="304.5"/>
	<text transform="matrix(1 0 0 1 149.689 176.9424)" class="st0 st5">Charipinae</text>
	<text transform="matrix(1 0 0 1 149.689 160.0469)" class="st0 st5">Eucoilinae</text>
	<text transform="matrix(1 0 0 1 149.6885 193.6841)" class="st0 st5">Aspicerinae+Figitinae</text>
	<text transform="matrix(1 0 0 1 149.6885 212.0327)" class="st0 st5">Anacharitinae</text>
	<text transform="matrix(1 0 0 1 149.6885 229.4731)" class="st0 st5">Plectocynipinae</text>
	<text transform="matrix(1 0 0 1 149.6885 246.7319)" class="st0 st5">Euceroptresinae</text>
	<text transform="matrix(1 0 0 1 149.6885 263.8091)" class="st0 st5">Parnipinae</text>
	<rect x="147.5" y="151.6" class="st4" width="83.4" height="64.1"/>
	<rect x="147.5" y="220.6" class="st4" width="64.1" height="47.2"/>
	<rect x="147.5" y="272.8" class="st4" width="70.8" height="219.9"/>
	<line class="st3" x1="74.8" y1="409.4" x2="92.2" y2="409.4"/>
	<text transform="matrix(1 0 0 1 36.6836 494.7959)" class="st7 st8">A</text>
	<text transform="matrix(1 0 0 1 311.5362 494.7959)" class="st7 st8">B</text>
	<g>
		<g>
			<line class="st4" x1="509.2" y1="319.5" x2="485.3" y2="336.5"/>
			<g>
				<polygon points="485.3,335.1 482.4,338.6 486.6,337 				"/>
			</g>
		</g>
	</g>
	<g>
		<g>
			<line class="st4" x1="509.2" y1="288" x2="499.2" y2="277.6"/>
			<g>
				<polygon points="500.6,277.3 496.8,275 498.9,278.9 				"/>
			</g>
		</g>
	</g>
	<g>
		<g>
			<line class="st4" x1="509.2" y1="306.5" x2="501.7" y2="306.2"/>
			<g>
				<polygon points="502.5,305.1 498.2,306.1 502.5,307.4 				"/>
			</g>
		</g>
	</g>
</g>
</svg>
